<svg xmlns="http://www.w3.org/2000/svg" width="440" height="550" viewBox="0 0 440 550" fill="none"><path d="M231.691 247.131C245.538 257.177 260.416 261.842 277.871 264.477C399.793 278.245 383.155 323.046 372.596 375.765C426.019 298.644 446 242.559 438.465 194.631C430.33 142.893 393.931 105.252 382.582 84.2031C382.402 84.2931 382.187 84.4105 382.004 84.5018C381.261 84.9497 380.532 85.3896 379.775 85.8457C374.058 89.2891 367.944 92.9721 361.547 96.9902C358.349 98.9992 355.08 101.092 351.755 103.28C348.431 105.469 345.05 107.753 341.628 110.145C338.206 112.537 334.742 115.036 331.252 117.655C327.761 120.274 324.243 123.012 320.713 125.882C318.948 127.317 317.18 128.785 315.411 130.287C313.641 131.789 311.871 133.326 310.1 134.898C308.33 136.47 306.56 138.079 304.793 139.724C303.026 141.37 301.26 143.053 299.499 144.774C297.739 146.496 295.982 148.256 294.231 150.057C292.48 151.858 290.735 153.699 288.998 155.582C287.261 157.465 285.531 159.39 283.811 161.358C282.092 163.326 280.381 165.337 278.682 167.393C276.983 169.449 275.296 171.55 273.621 173.698C271.947 175.845 270.286 178.038 268.64 180.279C266.993 182.521 265.362 184.81 263.748 187.148C262.133 189.486 260.535 191.873 258.957 194.312C257.378 196.75 255.818 199.239 254.278 201.78C252.738 204.321 251.218 206.915 249.721 209.562C248.224 212.209 246.749 214.91 245.298 217.666C243.847 220.422 242.421 223.233 241.02 226.101C239.619 228.969 238.243 231.894 236.896 234.877C235.548 237.86 234.229 240.901 232.939 244.002C232.513 245.025 232.111 246.095 231.691 247.131Z" fill="#515151"></path><path d="M227.938 256.843C227.138 258.987 226.338 261.13 225.57 263.335C224.916 265.212 224.304 267.077 223.73 268.927C223.156 270.777 222.621 272.614 222.123 274.435C221.626 276.257 221.164 278.063 220.739 279.854C220.313 281.645 219.923 283.419 219.565 285.177C219.208 286.935 218.884 288.676 218.591 290.398C218.298 292.121 218.037 293.826 217.804 295.511C217.572 297.197 217.37 298.863 217.194 300.51C217.019 302.156 216.871 303.782 216.748 305.388C216.626 306.993 216.529 308.577 216.456 310.139C216.383 311.701 216.333 313.241 216.305 314.757C216.277 316.238 216.33 317.625 216.342 319.06C242.782 319.264 292.103 318.614 340.253 287.713C339.359 287.263 338.385 286.81 337.279 286.354C336.082 285.858 334.794 285.374 333.425 284.901C332.056 284.428 330.606 283.966 329.087 283.516C327.567 283.066 325.977 282.627 324.329 282.2C322.68 281.773 320.972 281.358 319.216 280.955C315.713 280.151 312.062 279.404 308.363 278.715C304.665 278.025 300.919 277.391 297.227 276.812C293.534 276.233 289.895 275.709 286.41 275.238C282.925 274.766 279.594 274.348 276.517 273.981C274.831 273.781 273.207 273.564 271.639 273.331C270.072 273.099 268.562 272.852 267.106 272.592C264.196 272.071 261.503 271.497 259.003 270.882C256.504 270.266 254.197 269.609 252.06 268.922C249.923 268.236 247.955 267.519 246.132 266.786C244.308 266.052 242.63 265.301 241.072 264.545C239.513 263.788 238.075 263.026 236.732 262.27C235.39 261.515 234.144 260.765 232.969 260.035C231.795 259.304 230.692 258.592 229.636 257.91C229.042 257.527 228.506 257.205 227.938 256.843Z" fill="#515151"></path><path d="M227.683 0C133.953 6.19895e-05 82.9257 43.0095 56.7683 73.5138L110.417 73.5144C120.577 73.5144 128.887 81.8775 129.153 92.3702L129.498 105.998C129.618 110.712 133.351 114.47 137.915 114.47H160.493C160.483 114.056 160.477 113.643 160.477 113.227C160.477 85.8735 181.942 63.699 208.419 63.699C234.897 63.699 256.362 85.8735 256.362 113.227C256.362 140.581 234.897 162.755 208.419 162.755C185.915 162.755 167.036 146.735 161.875 125.133H137.916C127.756 125.133 119.446 116.77 119.18 106.277L118.835 92.6492C118.715 87.9352 114.982 84.1776 110.417 84.1776L48.1526 84.1771C45.4676 87.695 43.1754 90.877 41.2447 93.5847C36.5802 100.127 30.247 110.181 23.9438 123.048H73.5465C75.4749 118.04 80.1467 114.442 85.6923 114.292C93.1156 114.091 99.2911 120.145 99.4853 127.814C99.6795 135.483 93.8191 141.862 86.3958 142.063C80.7521 142.215 75.8331 138.751 73.7121 133.712H19.0365C11.319 151.589 4.34934 173.6 1.44016 198.398L21.583 198.491C26.2334 198.513 30.0205 194.635 30.0411 189.831L30.0968 176.861C30.1427 166.201 38.5205 157.585 48.8391 157.585L121.687 157.585C123.468 152.276 128.284 148.402 134.042 148.246C141.465 148.045 147.641 154.099 147.835 161.768C148.029 169.437 142.169 175.816 134.745 176.017C129.322 176.163 124.569 172.969 122.323 168.248L48.8391 168.248C44.2032 168.248 40.4393 172.119 40.4186 176.908L40.3629 189.879C40.3168 200.572 31.8878 209.202 21.5368 209.154L0.455511 209.057C-2.46265 253.056 8.05803 304.766 48.9738 357.36C105.732 430.319 209.077 450.242 253.895 550C272.972 455.637 218.536 408.246 209.225 350.897C209.039 349.967 208.842 349.113 208.665 348.135C208.244 345.822 207.852 343.376 207.503 340.806C207.154 338.237 206.849 335.542 206.604 332.732C206.359 329.922 206.174 326.996 206.065 323.962C205.956 320.929 205.923 317.789 205.983 314.55C206.013 312.931 206.066 311.288 206.145 309.621C206.223 307.953 206.326 306.263 206.457 304.55C206.587 302.837 206.745 301.102 206.932 299.346C207.119 297.589 207.336 295.812 207.583 294.014C207.831 292.217 208.109 290.399 208.422 288.562C208.734 286.725 209.079 284.87 209.46 282.996C209.841 281.123 210.257 279.231 210.71 277.323C211.164 275.415 211.655 273.49 212.185 271.549C212.715 269.609 213.285 267.652 213.896 265.681C214.507 263.71 215.16 261.725 215.856 259.726C217.061 256.266 218.3 252.87 219.573 249.537C220.845 246.204 222.15 242.935 223.485 239.727C224.821 236.519 226.187 233.373 227.582 230.287C228.978 227.201 230.401 224.174 231.852 221.207C233.303 218.239 234.781 215.33 236.284 212.478C237.786 209.626 239.314 206.832 240.865 204.093C242.415 201.354 243.988 198.67 245.583 196.041C247.178 193.411 248.793 190.836 250.428 188.313C252.063 185.79 253.717 183.32 255.388 180.901C257.059 178.482 258.747 176.114 260.451 173.795C262.154 171.477 263.874 169.208 265.606 166.987C267.338 164.766 269.083 162.594 270.84 160.467C272.597 158.341 274.365 156.262 276.143 154.227C277.921 152.193 279.708 150.203 281.503 148.257C283.297 146.311 285.1 144.408 286.907 142.548C288.715 140.687 290.528 138.869 292.345 137.091C294.162 135.313 295.983 133.576 297.805 131.878C299.628 130.18 301.452 128.52 303.276 126.899C305.1 125.277 306.923 123.692 308.745 122.144C310.566 120.596 312.385 119.084 314.201 117.607C317.831 114.651 321.445 111.834 325.028 109.143C328.61 106.452 332.16 103.886 335.663 101.435C339.166 98.9835 342.622 96.6466 346.014 94.4112C349.407 92.1758 352.738 90.0424 355.989 87.9988C359.241 85.9552 362.414 84.0015 365.494 82.1257C368.574 80.2498 371.56 78.4518 374.437 76.7195C375.367 76.1587 376.264 75.6178 377.172 75.0704C352.392 38.8357 286.599 -3.89645e-05 227.683 0Z" fill="#1A82D9"></path><path d="M208.421 149.286C228.598 149.286 244.954 132.639 244.954 112.104C244.954 91.5699 228.598 74.9233 208.421 74.9233C188.243 74.9233 171.887 91.5699 171.887 112.104C171.887 132.639 188.243 149.286 208.421 149.286Z" fill="#515151"></path></svg>